<?xml version="1.0" encoding="utf-8"?>
<!-- Generator: Adobe Illustrator 15.0.0, SVG Export Plug-In . SVG Version: 6.00 Build 0)  -->
<!DOCTYPE svg PUBLIC "-//W3C//DTD SVG 1.1//EN" "http://www.w3.org/Graphics/SVG/1.1/DTD/svg11.dtd">
<svg version="1.1" id="Layer_1" xmlns="http://www.w3.org/2000/svg" xmlns:xlink="http://www.w3.org/1999/xlink" x="0px" y="0px"
	 width="801px" height="250px" viewBox="0 0 801 250" enable-background="new 0 0 801 250" xml:space="preserve">
<g>
	<g>
		<path fill="#0054C6" d="M239.738,211.935c-5.553,5.503-13.884-0.842-13.884-0.842s-11.195-7.054-26.774-24.727
			c-0.105-0.12-0.212-0.24-0.316-0.36l12.804-21.128c0.059,0,32.78,1.662,36.178,10.315c3.21,8.178-9.288,6.651-9.288,6.651
			s17.028,7.477,13.827,15.479c-3.2,8.003-10.945,3.406-10.945,3.406S244.848,206.87,239.738,211.935z"/>
		<path fill="#003D7F" d="M240.562,212.748l-0.024,0.026c-0.953,0.998-2.255,1.864-3.664,2.299
			c-1.415,0.453-2.909,0.518-4.313,0.339c-1.41-0.177-2.748-0.579-4.013-1.101c-1.279-0.54-2.43-1.137-3.642-1.973l0.113,0.078
			c-2.759-1.732-5.227-3.569-7.688-5.529c-2.443-1.954-4.813-3.989-7.127-6.084c-4.641-4.182-8.979-8.662-13.17-13.286l-1.105-1.219
			l0.87-1.483l0.003-0.005l14.432-20.135l0.144-0.201l0.19,0.013l0.033,0.003c4.461-0.014,8.903,0.257,13.341,0.756
			c4.43,0.529,8.856,1.261,13.208,2.541c2.167,0.664,4.337,1.418,6.396,2.594c1.022,0.597,2.029,1.291,2.914,2.228
			c0.441,0.468,0.836,1.013,1.143,1.633c0.153,0.304,0.28,0.672,0.357,0.903c0.101,0.31,0.19,0.627,0.256,0.935
			c0.131,0.629,0.215,1.301,0.13,2.005c-0.075,0.699-0.326,1.424-0.742,2.024c-0.848,1.23-2.133,1.8-3.29,2.112
			c-1.181,0.322-2.354,0.387-3.502,0.372c-1.151-0.02-2.274-0.122-3.401-0.36l0.204-0.745l0.013,0.007
			c2.914,0.899,5.668,2.215,8.249,3.901c2.527,1.72,5.079,3.749,6.504,6.955c0.677,1.583,0.849,3.623,0.115,5.308
			c-0.632,1.523-1.561,3.022-3.03,4.055c-1.446,1.06-3.318,1.376-4.934,1.14c-1.637-0.245-3.101-0.862-4.392-1.787l0.538-0.528
			l0.003,0.006c0.614,0.905,1.007,1.885,1.313,2.926c0.274,1.043,0.396,2.146,0.328,3.262c-0.062,1.117-0.37,2.23-0.845,3.261
			C241.993,211.015,241.323,211.938,240.562,212.748z M238.934,211.1c1.341-1.224,2.286-2.795,2.635-4.587
			c0.18-0.896,0.202-1.842,0.092-2.786c-0.085-0.945-0.328-1.913-0.658-2.802L241,200.924l-1.26-1.233l1.798,0.705
			c2.641,1.035,5.775,1.239,7.595-0.422c0.914-0.796,1.582-1.955,2.019-3.199c0.374-1.111,0.31-2.265-0.196-3.412
			c-0.494-1.14-1.303-2.252-2.261-3.255c-0.943-1.025-2.028-1.962-3.152-2.868c-2.268-1.792-4.729-3.435-7.23-5.033l-0.012-0.004
			l-2.3-0.73l2.505-0.015c2.151-0.013,4.386-0.207,6.27-0.915c0.926-0.359,1.727-0.892,2.095-1.552
			c0.376-0.648,0.368-1.481,0.134-2.387c-0.062-0.231-0.134-0.444-0.213-0.658c-0.112-0.288-0.174-0.441-0.278-0.63
			c-0.199-0.366-0.485-0.71-0.803-1.047c-0.647-0.668-1.486-1.245-2.382-1.747c-1.806-1.001-3.824-1.776-5.886-2.415
			c-4.137-1.279-8.45-2.16-12.781-2.915c-4.334-0.754-8.714-1.388-13.097-1.924c-0.009,0-0.007,0,0.004,0.001l0.334-0.188
			l-11.17,22.112l-0.003,0.004l-0.235-2.702c3.948,4.646,8.128,9.11,12.454,13.405c2.171,2.141,4.399,4.222,6.692,6.22
			c2.285,1.976,4.662,3.977,7.05,5.649l0.124,0.087l-0.011-0.008c0.836,0.647,1.903,1.295,2.932,1.787
			c1.045,0.499,2.135,0.886,3.228,1.083c1.093,0.199,2.187,0.201,3.202-0.063C237.188,212.388,238.096,211.88,238.934,211.1z"/>
	</g>
	<g>
		<circle fill="#0054C6" cx="152.157" cy="145.275" r="89.005"/>
		<path fill="#003D7F" d="M240.157,145.281c-0.02-11.536-2.31-23.036-6.753-33.658c-4.44-10.623-11.063-20.297-19.233-28.362
			c-8.18-8.064-17.983-14.427-28.589-18.685c-10.609-4.266-22.039-6.368-33.425-6.228c-11.386,0.125-22.71,2.493-33.119,6.965
			c-10.422,4.449-19.887,11.005-27.8,19.042c-15.902,16.044-25.093,38.392-24.934,60.918c-0.16,22.526,9.031,44.875,24.934,60.919
			c7.912,8.037,17.377,14.594,27.8,19.043c10.409,4.471,21.732,6.839,33.119,6.965c11.385,0.14,22.815-1.962,33.425-6.228
			c10.605-4.259,20.409-10.621,28.589-18.686c8.17-8.063,14.793-17.738,19.232-28.361c4.444-10.619,6.734-22.128,6.754-33.652
			V145.281z M242.167,145.275c0.035,11.781-2.252,23.58-6.756,34.484c-4.478,10.912-11.081,20.965-19.396,29.374
			c-8.295,8.42-18.219,15.284-29.147,19.943c-10.914,4.682-22.792,7.157-34.711,7.281c-11.919,0.142-23.903-2.067-35.018-6.544
			c-11.112-4.469-21.374-11.139-29.936-19.586c-8.552-8.446-15.483-18.579-20.134-29.709c-4.655-11.124-7.052-23.188-7.07-35.244
			c0.019-12.057,2.416-24.12,7.071-35.244c4.65-11.129,11.581-21.263,20.133-29.709c8.562-8.447,18.824-15.117,29.936-19.585
			c11.115-4.477,23.099-6.686,35.017-6.544c11.92,0.125,23.797,2.6,34.712,7.282c10.929,4.659,20.853,11.523,29.146,19.943
			c8.314,8.41,14.919,18.462,19.396,29.374c4.504,10.902,6.791,22.71,6.756,34.478V145.275z"/>
	</g>
	<g>
		<path fill="#FF8F00" d="M204.47,145.03c0,0,4.313-3.696,8.624-2.464c4.313,1.232,55.436,19.402,55.436,19.402v2.771l-32.029,4.621
			l-26.794,14.475c0,0-1.541-0.924-3.08-3.695c-1.54-2.773-6.159-18.787-6.159-18.787L204.47,145.03z"/>
		<path fill="#A85800" d="M203.481,143.865c1.139-1.256,2.412-2.145,3.953-2.838c1.517-0.675,3.34-1.042,5.21-0.749
			c0.442,0.073,0.976,0.194,1.328,0.319l1.047,0.356l2.023,0.72l4.007,1.461l15.956,5.931l15.879,6.124
			c5.28,2.074,10.558,4.156,15.811,6.308l0.001,0.001l0.333,0.118v0.353v2.771v0.001l0.009,0.422l-0.438,0.073l-31.931,5.3
			l0.394-0.131l-0.001,0.001l-26.643,14.753l-0.746,0.413l-0.74-0.447l-0.012-0.007c-0.392-0.251-0.575-0.415-0.826-0.63
			c-0.231-0.203-0.444-0.412-0.648-0.626c-0.407-0.428-0.772-0.876-1.108-1.338c-0.337-0.462-0.643-0.938-0.924-1.424l-0.211-0.375
			l-0.211-0.431l-0.332-0.768c-0.805-1.994-1.447-3.94-2.102-5.907c-1.286-3.929-2.487-7.857-3.661-11.813h-0.001l-0.121-0.429
			l0.104-0.413l4.193-16.651L203.481,143.865z M205.8,146.04l-3.747,15.703l-0.017-0.841v0.001
			c1.121,3.929,2.279,7.864,3.508,11.753c0.618,1.935,1.248,3.896,1.962,5.717l0.271,0.647l0.124,0.264l0.162,0.297
			c0.229,0.405,0.476,0.797,0.739,1.167s0.545,0.723,0.843,1.041c0.148,0.158,0.3,0.311,0.453,0.448
			c0.134,0.125,0.347,0.288,0.387,0.315l-0.007-0.004l-1.486-0.034l26.943-14.195h0.001l0.21-0.107l0.185-0.023l32.127-3.942
			l-0.429,0.495v-0.001v-2.771l0.332,0.471h-0.001c-5.432-1.645-10.842-3.351-16.251-5.058l-16.201-5.194L219.75,146.9l-4.039-1.294
			l-2.01-0.627l-0.979-0.291c-0.323-0.09-0.481-0.126-0.738-0.173c-0.942-0.138-2.006-0.016-3.136,0.302
			C207.854,145.094,206.781,145.571,205.8,146.04z"/>
	</g>
	<circle fill="#003D7F" cx="165.971" cy="121.084" r="34.95"/>
	<circle fill="#003D7F" cx="225.471" cy="114.084" r="25.95"/>
	<circle fill="#FFFFFF" cx="168.721" cy="117.334" r="33.7"/>
	<circle fill="#FFFFFF" cx="229.711" cy="111.095" r="25.586"/>
	<path fill="#E8E8E8" d="M207.625,104.497c-7.694,12.333,11.486,44.983,39.5,22.8C230.866,132.349,210.971,128.515,207.625,104.497z
		"/>
	<path fill="#E8E8E8" d="M140.012,109.394c-9.886,15.841,14.754,57.783,50.74,29.287
		C169.866,145.172,144.31,140.247,140.012,109.394z"/>
	<circle cx="224.095" cy="116.71" r="7.489"/>
	<circle cx="185.009" cy="112.892" r="10.609"/>
	<g>
		<path fill="#0054C6" d="M58.231,214.297c7.13,7.065,17.826-1.08,17.826-1.08s14.374-9.058,34.377-31.749
			c0.136-0.153,0.271-0.309,0.407-0.463l-16.441-27.127c-0.076,0-42.089,2.134-46.451,13.245c-4.122,10.5,11.925,8.539,11.925,8.539
			s-21.863,9.601-17.753,19.876c4.11,10.275,14.054,4.373,14.054,4.373S51.67,207.795,58.231,214.297z"/>
		<path fill="#003D7F" d="M59.256,213.218c1.079,1.006,2.247,1.66,3.563,2.003c1.305,0.34,2.709,0.338,4.112,0.082
			c1.403-0.253,2.802-0.749,4.145-1.391c1.32-0.631,2.691-1.463,3.763-2.295l-0.014,0.011l0.16-0.112
			c3.065-2.147,6.117-4.716,9.051-7.253c2.945-2.565,5.806-5.238,8.594-7.986c2.785-2.752,5.503-5.573,8.174-8.439
			c2.669-2.873,5.255-5.805,7.827-8.784l-0.311,3.48l-0.001-0.002l-14.345-28.394l0.428,0.241c0.003,0,0.02-0.001,0.011-0.001
			c-5.625,0.712-11.252,1.496-16.817,2.47c-5.562,0.97-11.101,2.1-16.413,3.742c-2.647,0.82-5.238,1.816-7.557,3.102
			c-1.151,0.644-2.227,1.385-3.059,2.243c-0.408,0.432-0.775,0.873-1.031,1.344c-0.135,0.241-0.213,0.438-0.358,0.809
			c-0.102,0.275-0.194,0.548-0.273,0.846c-0.301,1.161-0.313,2.232,0.17,3.064c0.472,0.847,1.5,1.531,2.689,1.993
			c2.42,0.896,5.288,1.144,8.051,1.174l3.164,0.035l-2.901,0.922l-0.011,0.004c-3.212,2.052-6.373,4.161-9.285,6.463
			c-1.443,1.163-2.836,2.366-4.048,3.682c-1.23,1.288-2.268,2.717-2.904,4.181c-0.65,1.473-0.732,2.954-0.252,4.381
			c0.56,1.597,1.419,3.086,2.592,4.107c1.179,1.019,2.747,1.566,4.482,1.576c1.722,0.033,3.571-0.388,5.27-1.034l2.258-0.859
			l-1.568,1.538l-0.001,0.002c-0.423,1.139-0.736,2.382-0.846,3.596c-0.133,1.215-0.093,2.426,0.124,3.577
			c0.437,2.31,1.664,4.331,3.392,5.906L59.256,213.218z M57.184,215.354c-0.982-1.043-1.846-2.232-2.47-3.553
			c-0.612-1.322-1.001-2.752-1.09-4.186c-0.103-1.433,0.066-2.852,0.427-4.189c0.394-1.337,0.898-2.594,1.688-3.757l0.003-0.006
			l0.69,0.679c-1.657,1.187-3.538,1.979-5.639,2.295c-2.074,0.303-4.477-0.104-6.334-1.465c-1.887-1.325-3.08-3.25-3.891-5.206
			c-0.942-2.163-0.72-4.783,0.149-6.815c0.852-2.082,2.232-3.718,3.65-5.181c1.465-1.428,3.045-2.663,4.701-3.749
			c3.315-2.166,6.85-3.855,10.593-5.011l0.013-0.007l0.262,0.957c-1.448,0.298-2.889,0.45-4.369,0.478
			c-1.475,0.01-2.98-0.083-4.496-0.492c-1.486-0.402-3.136-1.134-4.225-2.714c-0.533-0.771-0.855-1.702-0.951-2.6
			c-0.11-0.904,0-1.767,0.167-2.574c0.084-0.395,0.2-0.803,0.329-1.199c0.099-0.297,0.262-0.771,0.459-1.16
			c0.394-0.796,0.9-1.496,1.467-2.097c1.136-1.202,2.429-2.093,3.742-2.859c2.645-1.51,5.432-2.478,8.214-3.33
			c5.587-1.644,11.271-2.582,16.96-3.263c5.697-0.634,11.399-1.013,17.13-0.971l0.036-0.002l0.246-0.014l0.184,0.255l18.533,25.855
			l0.001,0.002l1.119,1.892l-1.43,1.59c-5.339,5.938-10.958,11.675-16.901,17.048c-2.97,2.69-6.014,5.304-9.151,7.813
			c-1.566,1.257-3.165,2.477-4.798,3.659c-1.649,1.189-3.256,2.318-5.073,3.44l0.146-0.101c-1.557,1.073-3.033,1.84-4.676,2.532
			c-1.624,0.67-3.341,1.187-5.152,1.414c-1.802,0.229-3.721,0.146-5.537-0.436c-1.809-0.559-3.481-1.671-4.704-2.951L57.184,215.354
			z"/>
	</g>
	<g>
		<line fill="#FF8F00" x1="237.666" y1="169.167" x2="203.666" y2="172.501"/>
		<polygon fill="#A85800" points="237.771,170.242 203.948,175.383 203.384,169.619 237.561,168.092 		"/>
	</g>
	<g>
		<path fill="#0054C6" d="M111.959,64.987c0,0-4.111-16.509-24.49-22.828c16.195-2.344,27.758,13.979,27.758,13.979
			s-8.973-28.437,20.895-46.899c-23.913,19.268-11.214,47.611-11.214,47.611s-4.595-28.665,21.379-34.743
			c-21.027,11.859-13.004,35.726-13.004,35.726L111.959,64.987z"/>
		<path fill="#003D7F" d="M112.248,65.414l-0.769-0.304c-1.034-0.409-1.592-0.908-2.003-1.471c-0.401-0.562-0.577-1.22-0.896-1.823
			c-0.585-1.226-1.257-2.42-2.003-3.567c-1.489-2.295-3.216-4.454-5.2-6.378c-1.965-1.944-4.161-3.679-6.524-5.204
			c-2.356-1.545-4.9-2.832-7.531-4.034l-2.035-0.93l2.111-0.035l0,0c2.746-0.396,5.563-0.281,8.268,0.316
			c2.708,0.593,5.295,1.646,7.695,2.994c2.403,1.35,4.626,2.993,6.674,4.819c2.045,1.839,3.93,3.82,5.593,6.049l0.003,0.003
			l-0.878,0.437c-0.991-2.199-1.511-4.505-1.824-6.854c-0.313-2.348-0.335-4.731-0.145-7.097c0.435-4.724,1.644-9.4,3.694-13.685
			c2.01-4.307,4.875-8.164,8.18-11.494c1.647-1.676,3.442-3.195,5.325-4.575c1.88-1.385,3.837-2.651,5.875-3.764l0.003-0.002
			l0.572,0.808c-3.301,2.815-6.198,6.071-8.466,9.717c-2.266,3.646-3.832,7.692-4.702,11.88c-0.881,4.195-0.955,8.527-0.569,12.802
			c0.432,4.268,1.302,8.544,2.662,12.619l0.001,0.002l-0.943,0.282c-0.971-3.768-0.926-7.667-0.333-11.478
			c0.6-3.805,1.757-7.565,3.652-10.972c1.878-3.413,4.601-6.363,7.807-8.544c3.211-2.192,6.894-3.565,10.626-4.309l0.004-0.001
			l3.317-0.978l-2.961,1.893c-2.856,1.827-5.485,3.986-7.552,6.6c-2.113,2.565-3.676,5.543-4.625,8.703
			c-0.954,3.16-1.375,6.479-1.306,9.799c0.021,1.66,0.158,3.322,0.402,4.967c0.122,0.822,0.272,1.641,0.449,2.45
			c0.2,0.808,0.418,1.586-0.147,2.611l0.001,0.005l0.153,0.472l-0.466,0.156L112.248,65.414z M112.806,64.18l20.319-6.818
			l-0.312,0.628l-0.002-0.006c-1.087-0.614-1.28-1.509-1.444-2.381c-0.184-0.872-0.337-1.748-0.461-2.627
			c-0.247-1.759-0.381-3.534-0.39-5.313c0.005-3.553,0.497-7.144,1.684-10.527c1.182-3.38,3.026-6.532,5.411-9.174
			c2.417-2.614,5.303-4.739,8.432-6.288l0.357,0.915l-0.004,0.001c-3.582,0.968-7.009,2.461-9.954,4.619
			c-2.964,2.135-5.345,4.977-7.072,8.167c-1.735,3.195-2.796,6.748-3.329,10.372c-0.511,3.628-0.64,7.327-0.643,11.021l-0.004,3.404
			l-0.939-3.123l0-0.003c-1.011-2.022-1.74-4.116-2.328-6.269c-0.608-2.145-0.997-4.349-1.251-6.567
			c-0.517-4.438-0.291-8.973,0.637-13.36c0.919-4.393,2.692-8.607,5.161-12.34c2.449-3.751,5.616-6.982,9.138-9.662l0.572,0.808
			l-0.003,0.002c-1.874,1.307-3.697,2.673-5.421,4.148c-1.715,1.483-3.341,3.057-4.861,4.715c-3.041,3.324-5.5,7.122-7.33,11.178
			c-1.799,4.072-2.938,8.43-3.302,12.869c-0.396,4.429-0.286,8.931,0.235,13.416l0.334,2.876l-1.213-2.44l-0.001-0.004
			c-1.583-2.122-3.455-4.097-5.445-5.883c-2.001-1.785-4.169-3.385-6.5-4.694c-2.328-1.308-4.824-2.322-7.422-2.89
			c-2.595-0.573-5.286-0.683-7.913-0.304l0,0l0.076-0.964c2.908,0.527,5.757,1.464,8.478,2.733c2.721,1.273,5.289,2.921,7.62,4.88
			c2.312,1.976,4.403,4.248,6.121,6.789c0.859,1.271,1.637,2.598,2.327,3.978c0.317,0.701,0.733,1.369,0.871,2.154
			C113.127,62.82,113.109,63.466,112.806,64.18z"/>
	</g>
</g>
<g>
	<path fill="#FF8F00" d="M351.153,156.619c0,8.375-2.853,15.438-8.558,21.188c-5.706,5.752-12.746,8.627-21.118,8.627
		c-8.467,0-15.551-2.852-21.256-8.559c-5.707-5.705-8.557-12.789-8.557-21.256v-47.48c0-2.76,0.85-5.015,2.553-6.763
		c1.702-1.748,3.934-2.623,6.694-2.623s5.015,0.875,6.763,2.623c1.747,1.748,2.623,4.002,2.623,6.763v7.316h31.608
		c2.761,0,4.991,0.852,6.695,2.553c1.701,1.704,2.553,3.934,2.553,6.694c0,6.258-3.083,9.386-9.248,9.386h-31.608v21.531
		c0,3.13,1.081,5.776,3.243,7.937c2.161,2.163,4.808,3.243,7.937,3.243c3.127,0,5.75-1.08,7.868-3.243
		c2.115-2.161,3.174-4.807,3.174-7.937v-1.242c0-2.667,0.897-4.876,2.691-6.625c1.794-1.748,4.025-2.623,6.694-2.623
		c2.668,0,4.876,0.875,6.625,2.623c1.747,1.749,2.622,3.958,2.622,6.625V156.619z"/>
	<path fill="#FF8F00" d="M418.372,163.255c2.208,2.847,5.152,4.269,8.833,4.269c3.127,0,5.75-1.079,7.867-3.236
		c2.116-2.157,3.175-4.794,3.175-7.915v-31.11c0-2.752,0.874-4.978,2.623-6.677c1.747-1.697,4.002-2.546,6.763-2.546
		s4.991,0.85,6.694,2.549c1.702,1.699,2.554,3.925,2.554,6.681v31.131c0,8.359-2.854,15.408-8.558,21.146
		c-5.707,5.741-12.746,8.61-21.118,8.61c-7.363,0-13.802-2.347-19.324-7.039c-5.614,4.692-12.056,7.039-19.324,7.039
		c-8.467,0-15.551-2.847-21.256-8.541c-5.706-5.694-8.557-12.765-8.557-21.215V125.27c0-6.153,3.127-9.23,9.386-9.23
		c2.761,0,4.99,0.85,6.694,2.546c1.702,1.699,2.554,3.925,2.554,6.677v31.11c0,3.121,1.081,5.758,3.244,7.915
		c2.161,2.157,4.808,3.236,7.937,3.236c3.127,0,5.773-1.079,7.937-3.236c2.161-2.157,3.244-4.794,3.244-7.915v-31.11
		c0-2.752,0.85-4.978,2.553-6.677c1.702-1.697,3.934-2.546,6.694-2.546c6.257,0,9.386,3.075,9.386,9.223V163.255z"/>
	<path fill="#FF8F00" d="M523.96,140.828l-17.667,17.31c-2.025,1.841-4.188,2.761-6.487,2.761c-2.577,0-4.809-0.956-6.694-2.867
		c-1.887-1.911-2.83-4.143-2.83-6.692c0-2.276,1.022-4.415,3.071-6.418l9.888-9.85c-1.194-0.265-2.392-0.398-3.586-0.398
		c-4.598,0-8.506,1.617-11.724,4.852c-3.218,3.235-4.827,7.16-4.827,11.78c0,4.62,1.608,8.571,4.831,11.851
		c3.22,3.28,7.13,4.919,11.731,4.919h12.285c2.76,0,4.99,0.852,6.694,2.553c1.702,1.705,2.553,3.935,2.553,6.696
		c0,2.759-0.852,5.016-2.553,6.763c-1.704,1.747-3.934,2.622-6.694,2.622h-12.285c-9.938,0-18.288-3.41-25.052-10.234
		c-6.763-6.823-10.144-15.213-10.144-25.17c0-9.958,3.381-18.325,10.144-25.102c6.764-6.776,15.114-10.164,25.052-10.164
		c10.029,0,18.541,3.602,25.535,10.8c1.839,1.94,2.761,4.063,2.761,6.371C527.963,136.258,526.628,138.797,523.96,140.828z"/>
	<path fill="#FF8F00" d="M594.905,140.828l-17.668,17.31c-2.025,1.841-4.188,2.761-6.487,2.761c-2.577,0-4.809-0.956-6.694-2.867
		c-1.888-1.911-2.83-4.143-2.83-6.692c0-2.276,1.023-4.415,3.072-6.418l9.888-9.85c-1.194-0.265-2.393-0.398-3.587-0.398
		c-4.598,0-8.506,1.617-11.724,4.852c-3.218,3.235-4.826,7.16-4.826,11.78c0,4.62,1.608,8.571,4.831,11.851
		c3.22,3.28,7.13,4.919,11.731,4.919h12.284c2.761,0,4.991,0.852,6.694,2.553c1.703,1.705,2.555,3.935,2.555,6.696
		c0,2.759-0.852,5.016-2.555,6.763s-3.934,2.622-6.694,2.622h-12.284c-9.938,0-18.288-3.41-25.052-10.234
		c-6.763-6.823-10.144-15.213-10.144-25.17c0-9.958,3.381-18.325,10.144-25.102c6.764-6.776,15.114-10.164,25.052-10.164
		c10.029,0,18.542,3.602,25.535,10.8c1.84,1.94,2.761,4.063,2.761,6.371C598.907,136.258,597.572,138.797,594.905,140.828z"/>
	<path fill="#FF8F00" d="M665.849,156.619c0,8.375-2.854,15.438-8.557,21.188c-5.707,5.752-12.747,8.627-21.119,8.627
		c-8.467,0-15.552-2.852-21.255-8.559c-5.707-5.705-8.559-12.789-8.559-21.256v-47.48c0-2.76,0.85-5.015,2.554-6.763
		c1.702-1.748,3.934-2.623,6.694-2.623s5.014,0.875,6.764,2.623c1.747,1.748,2.621,4.002,2.621,6.763v7.316h31.609
		c2.761,0,4.99,0.852,6.694,2.553c1.701,1.704,2.553,3.934,2.553,6.694c0,6.258-3.084,9.386-9.247,9.386h-31.609v21.531
		c0,3.13,1.081,5.776,3.245,7.937c2.161,2.163,4.807,3.243,7.936,3.243c3.128,0,5.749-1.08,7.868-3.243
		c2.115-2.161,3.175-4.807,3.175-7.937v-1.242c0-2.667,0.896-4.876,2.691-6.625c1.794-1.748,4.024-2.623,6.694-2.623
		c2.668,0,4.876,0.875,6.625,2.623c1.746,1.749,2.622,3.958,2.622,6.625V156.619z"/>
	<path fill="#FF8F00" d="M732.929,140.828l-17.667,17.31c-2.025,1.841-4.188,2.761-6.487,2.761c-2.577,0-4.81-0.956-6.694-2.867
		c-1.887-1.911-2.829-4.143-2.829-6.692c0-2.276,1.021-4.415,3.07-6.418l9.889-9.85c-1.194-0.265-2.392-0.398-3.586-0.398
		c-4.599,0-8.506,1.617-11.725,4.852c-3.217,3.235-4.826,7.16-4.826,11.78c0,4.62,1.609,8.571,4.831,11.851
		c3.22,3.28,7.13,4.919,11.732,4.919h12.284c2.761,0,4.991,0.852,6.694,2.553c1.701,1.705,2.553,3.935,2.553,6.696
		c0,2.759-0.852,5.016-2.553,6.763c-1.703,1.747-3.934,2.622-6.694,2.622h-12.284c-9.938,0-18.288-3.41-25.053-10.234
		c-6.763-6.823-10.145-15.213-10.145-25.17c0-9.958,3.382-18.325,10.145-25.102c6.765-6.776,15.114-10.164,25.053-10.164
		c10.028,0,18.541,3.602,25.535,10.8c1.839,1.94,2.761,4.063,2.761,6.371C736.933,136.258,735.597,138.797,732.929,140.828z"/>
	<path fill="#FF8F00" d="M763.017,145.746v31.416c0,2.77-0.875,5.006-2.622,6.712c-1.749,1.705-4.002,2.561-6.763,2.561
		s-4.993-0.855-6.694-2.559c-1.704-1.706-2.554-3.942-2.554-6.707v-31.394c0-8.39,2.875-15.442,8.627-21.159
		c5.749-5.716,12.813-8.575,21.187-8.575c2.668,0,4.877,0.875,6.625,2.622c1.747,1.749,2.623,3.958,2.623,6.625
		c0,5.707-3.175,8.833-9.523,9.386c-3.13,0.278-5.729,1.408-7.8,3.392C764.052,140.049,763.017,142.609,763.017,145.746z"/>
</g>
<rect x="639" y="173" fill="none" width="52" height="6"/>
</svg>
